<?xml version="1.0" encoding="utf-8"?>
<!-- Generator: Adobe Illustrator 25.2.1, SVG Export Plug-In . SVG Version: 6.00 Build 0)  -->
<svg version="1.1" id="Layer_1" xmlns="http://www.w3.org/2000/svg" xmlns:xlink="http://www.w3.org/1999/xlink" x="0px" y="0px"
	 viewBox="0 0 700 400" style="enable-background:new 0 0 700 400;" xml:space="preserve">
<style type="text/css">
	.st0{fill:#1A1A1A;}
	.st1{fill:#333333;}
	.st2{fill:#FFFFFF;}
	.st3{font-family:'Roboto-Regular';}
	.st4{font-size:48px;}
	.st5{font-size:24px;}
	.st6{font-size:30px;}
	.st7{font-size:80px;}
	.st8{font-family:'Roboto-Light';}
</style>
<rect id="background" class="st0" width="700" height="400"/>
<g id="header">
	<rect class="st1" width="700" height="80"/>
	<g id="logo" transform="translate(8, 8)">
		<ellipse class="st2" cx="32" cy="32" rx="28" ry="28"/>
		<path d="M30,8.1c-16.7,1.5-26.8,19-19.6,33.8c1.5,3,4.5,6.8,5,6.3c0.1-0.1,0.8-0.8,1.5-1.6l1.4-1.4l-0.9-1
			C6.1,31.4,15.7,11.7,32.8,12.3c16.6,0.6,24.8,20.2,13.5,32.2c-0.9,0.9-1,0.6,0.9,2.5l1.6,1.5l0.5-0.5c2.8-2.7,5.2-7.2,6.1-11.4
			C58.8,21,46,6.7,30,8.1 M34.7,25.8c-3.7,3-6.8,5.6-6.8,5.7c-0.1,0.1,3.8,4.4,4,4.4c0.1,0,11.6-13.5,11.6-13.6c0-0.2-1.8-2.1-2-2.1
			C41.5,20.3,38.4,22.8,34.7,25.8"/>
	</g>
	<text id="title" transform="matrix(1 0 0 1 84 56)" class="st2 st3 st4">Firora Fast</text>
	<text id="date" transform="matrix(1 0 0 1 610.3711 32)" class="st2 st3 st5">{{date}}</text>
	<text id="time" transform="matrix(1 0 0 1 610.1016 64)" class="st2 st3 st5">{{time}}</text>
</g>
<g id="content" transform="translate(0, 80)">
	<g id="latency">
		<text transform="matrix(1 0 0 1 152.0166 48)" class="st2 st3 st6">LATENCY</text>
		<text transform="matrix(1 0 0 1 -83.5938 120)" class="st2 st3 st7">{{latency}}</text>
		<text transform="matrix(1 0 0 1 282 120)" class="st2 st8 st5">ms</text>
	</g>
	<g id="jitter">
		<text transform="matrix(1 0 0 1 503.7305 48)" class="st2 st3 st6">JITTER</text>
		<text transform="matrix(1 0 0 1 331.4843 120)" class="st2 st3 st7">{{jitter}}</text>
		<text transform="matrix(1 0 0 1 604 120)" class="st2 st8 st5">ms</text>
	</g>
	<g id="download">
		<text transform="matrix(1 0 0 1 116.9482 168)" class="st2 st3 st6">DOWNLOAD</text>
		<text transform="matrix(1 0 0 1 -176.9532 240)" class="st2 st3 st7">{{download}}</text>
		<text transform="matrix(1 0 0 1 282 240)" class="st2 st8 st5">Mbps</text>
	</g>
	<g id="upload">
		<text transform="matrix(1 0 0 1 486.8701 168)" class="st2 st3 st6">UPLOAD</text>
		<text transform="matrix(1 0 0 1 249.0625 240)" class="st2 st3 st7">{{upload}}</text>
		<text transform="matrix(1 0 0 1 604 240)" class="st2 st8 st5">Mbps</text>
	</g>
	<g id="host">
		<text transform="matrix(1 0 0 1 202.29 290)" class="st2 st3 st6">HOST</text>
		<text transform="matrix(1 0 0 1 290 290)" class="st2 st3 st5">{{org}}</text>
	</g>
</g>
</svg>
